<svg xmlns="http://www.w3.org/2000/svg" xmlns:svg="http://www.w3.org/2000/svg" id="svg853" width="300" height="300" version="1.1" viewBox="0 0 79.375 79.375"><metadata id="metadata850"/><g id="layer1" transform="translate(0,-217.62498)"><g id="g1092" transform="matrix(8.3726953,0,0,8.3726953,-110.70045,212.89619)" style="display:inline;stroke-width:.11943585"><g id="g1034" transform="translate(-130.29067,-126.22247)" style="stroke-width:.11943585"><path style="fill:#f89939;fill-rule:evenodd;stroke:none;stroke-width:.001565" id="path9627" d="m 146.58431,132.73293 c -0.44379,0.44377 -0.51755,1.08948 -0.16474,1.44226 0.35277,0.35277 0.99846,0.27901 1.44222,-0.16472 0.44377,-0.44376 0.3154,-1.29157 0.16471,-1.44228 -0.12177,-0.12176 -0.99845,-0.279 -1.44219,0.16474 z"/><path id="path9629" d="m 149.92045,132.73293 c 0.4438,0.44377 0.51756,1.08948 0.16474,1.44226 -0.35277,0.35277 -0.99845,0.27901 -1.44222,-0.16472 -0.44377,-0.44376 -0.31539,-1.29157 -0.16471,-1.44228 0.12177,-0.12176 0.99845,-0.279 1.44219,0.16474 z" style="fill:#3499cd;fill-opacity:1;fill-rule:evenodd;stroke:none;stroke-width:.001565"/><path id="path9631" d="m 146.58431,131.9626 c -0.44379,-0.44377 -0.51755,-1.08949 -0.16474,-1.44227 0.35277,-0.35274 0.99846,-0.279 1.44222,0.16475 0.44377,0.44374 0.3154,1.29155 0.16471,1.44226 -0.12177,0.12176 -0.99845,0.279 -1.44219,-0.16474 z" style="fill:#3499cd;fill-opacity:1;fill-rule:evenodd;stroke:none;stroke-width:.001565"/><path style="fill:#f89939;fill-rule:evenodd;stroke:none;stroke-width:.001565" id="path9633" d="m 149.92045,131.9626 c 0.4438,-0.44377 0.51756,-1.08949 0.16474,-1.44227 -0.35277,-0.35274 -0.99845,-0.279 -1.44222,0.16475 -0.44377,0.44374 -0.31539,1.29155 -0.16471,1.44226 0.12177,0.12176 0.99845,0.279 1.44219,-0.16474 z"/></g><g style="stroke-width:.09997814" id="g933" transform="matrix(0.31607641,0,0,0.31607641,14.042365,0.45312491)"><path id="path929" d="m 21,9.2 -2.2,2.2 c 3.6,3.6 3.6,9.4 0,12.9 -3.6,3.6 -9.4,3.6 -12.9,0 -3.6,-3.6 -3.6,-9.4 0,-12.9 v 0 l 5.7,-5.7 0.8,-0.8 v 0 -4.3 L 3.8,9.2 C -1,14 -1,21.7 3.8,26.5 8.6,31.3 16.3,31.3 21,26.5 25.8,21.7 25.8,14 21,9.2 Z" class="st0" style="fill:#ee4c2c;stroke-width:.09997814"/><circle id="circle931" cx="16.7" cy="7.1" r="1.6" class="st0" style="fill:#ee4c2c;stroke-width:.09997814"/></g></g></g></svg>